M48
; DRILL file {KiCad 7.0.1} date Wed May  3 13:42:10 2023
; FORMAT={-:-/ absolute / metric / decimal}
; #@! TF.CreationDate,2023-05-03T13:42:10-03:00
; #@! TF.GenerationSoftware,Kicad,Pcbnew,7.0.1
; #@! TF.FileFunction,Plated,1,2,PTH
FMAT,2
METRIC
; #@! TA.AperFunction,Plated,PTH,ViaDrill
T1C0.400
; #@! TA.AperFunction,Plated,PTH,ComponentDrill
T2C0.500
; #@! TA.AperFunction,Plated,PTH,ComponentDrill
T3C0.600
; #@! TA.AperFunction,Plated,PTH,ComponentDrill
T4C0.700
; #@! TA.AperFunction,Plated,PTH,ComponentDrill
T5C0.800
; #@! TA.AperFunction,Plated,PTH,ComponentDrill
T6C0.900
; #@! TA.AperFunction,Plated,PTH,ComponentDrill
T7C1.000
; #@! TA.AperFunction,Plated,PTH,ComponentDrill
T8C1.020
; #@! TA.AperFunction,Plated,PTH,ComponentDrill
T9C1.100
; #@! TA.AperFunction,Plated,PTH,ComponentDrill
T10C1.400
; #@! TA.AperFunction,Plated,PTH,ComponentDrill
T11C2.500
%
G90
G05
T1
X63.754Y-93.472
T2
X56.291Y-32.512
X56.84Y-31.186
X56.84Y-33.838
X58.166Y-30.637
X58.166Y-34.387
X59.492Y-31.186
X59.492Y-33.838
X60.041Y-32.512
X61.117Y-126.589
X61.666Y-125.263
X61.666Y-127.915
X62.992Y-124.714
X62.992Y-128.464
X64.318Y-125.263
X64.318Y-127.915
X64.867Y-126.589
X130.657Y-32.71
X131.206Y-31.384
X131.206Y-34.036
X131.221Y-129.189
X131.77Y-127.863
X131.77Y-130.515
X132.532Y-30.835
X132.532Y-34.585
X133.096Y-127.314
X133.096Y-131.064
X133.858Y-31.384
X133.858Y-34.036
X134.407Y-32.71
X134.422Y-127.863
X134.422Y-130.515
X134.971Y-129.189
T3
X81.68Y-97.87
X83.68Y-97.87
X96.52Y-124.46
X98.52Y-124.46
X132.0Y-40.0
X132.0Y-42.0
T4
X66.38Y-100.55
X66.38Y-105.63
X66.38Y-110.71
X66.38Y-118.33
X71.1Y-67.66
X71.1Y-74.26
X71.1Y-80.96
X71.17Y-87.653
X71.24Y-41.26
X71.24Y-47.96
X71.24Y-54.66
X71.24Y-61.16
X74.0Y-100.55
X74.0Y-105.63
X74.0Y-110.71
X74.0Y-118.33
X75.06Y-126.84
X78.72Y-67.66
X78.72Y-74.26
X78.72Y-80.96
X78.79Y-87.653
X78.86Y-41.26
X78.86Y-47.96
X78.86Y-54.66
X78.86Y-61.16
X82.68Y-126.84
X84.96Y-126.81
X91.3Y-70.46
X91.3Y-77.16
X91.3Y-83.86
X91.37Y-90.353
X91.44Y-44.16
X91.44Y-50.76
X91.44Y-57.46
X91.44Y-63.96
X92.58Y-126.81
X98.92Y-70.46
X98.92Y-77.16
X98.92Y-83.86
X98.99Y-90.353
X99.06Y-44.16
X99.06Y-50.76
X99.06Y-57.46
X99.06Y-63.96
X107.81Y-31.85
X107.81Y-36.93
X107.81Y-42.01
X107.81Y-49.63
X115.43Y-31.85
X115.43Y-36.93
X115.43Y-42.01
X115.43Y-49.63
X116.01Y-58.42
X116.01Y-66.04
X118.91Y-58.42
X118.91Y-66.04
X119.535Y-31.85
X119.535Y-36.93
X119.535Y-42.01
X119.535Y-49.63
X127.155Y-31.85
X127.155Y-36.93
X127.155Y-42.01
X127.155Y-49.63
T5
X67.24Y-127.71
X69.78Y-127.71
X72.32Y-127.71
X79.08Y-106.87
X79.08Y-111.87
X81.26Y-67.909
X81.26Y-70.449
X81.26Y-74.552
X81.26Y-77.092
X81.26Y-81.195
X81.26Y-83.735
X81.26Y-87.888
X81.26Y-90.428
X81.28Y-41.314
X81.28Y-43.854
X81.28Y-47.956
X81.28Y-50.496
X81.28Y-54.599
X81.28Y-57.139
X81.28Y-61.242
X81.28Y-63.782
X82.78Y-106.87
X82.78Y-111.87
X86.38Y-106.87
X86.38Y-111.87
X88.88Y-67.909
X88.88Y-70.449
X88.88Y-74.552
X88.88Y-77.092
X88.88Y-81.195
X88.88Y-83.735
X88.88Y-87.888
X88.88Y-90.428
X88.9Y-41.314
X88.9Y-43.854
X88.9Y-47.956
X88.9Y-50.496
X88.9Y-54.599
X88.9Y-57.139
X88.9Y-61.242
X88.9Y-63.782
X89.18Y-96.07
X89.48Y-107.87
X94.18Y-96.07
X94.48Y-107.87
X107.97Y-58.29
X110.51Y-58.29
X113.05Y-58.29
X114.955Y-93.385
X115.005Y-76.45
X115.005Y-79.9
X115.005Y-83.35
X119.955Y-93.385
X120.005Y-76.45
X120.005Y-79.9
X120.005Y-83.35
X121.67Y-58.39
X124.21Y-58.39
X126.75Y-58.39
T6
X65.0Y-122.15
X75.16Y-122.15
X79.0Y-103.67
X83.64Y-118.66
X86.18Y-118.66
X89.16Y-103.67
X105.63Y-53.33
X115.79Y-53.33
X119.23Y-53.33
X129.39Y-53.33
T7
X63.67Y-56.36
X63.67Y-58.9
X63.67Y-61.44
X63.67Y-63.98
X63.67Y-66.52
X63.67Y-69.06
X63.67Y-71.6
X63.67Y-74.14
X63.67Y-76.68
X63.67Y-79.22
X66.21Y-56.36
X66.21Y-58.9
X66.21Y-61.44
X66.21Y-63.98
X66.21Y-66.52
X66.21Y-69.06
X66.21Y-71.6
X66.21Y-74.14
X66.21Y-76.68
X66.21Y-79.22
X103.12Y-111.33
X103.12Y-113.87
X103.12Y-116.41
X103.12Y-118.95
X103.12Y-121.49
X103.12Y-124.03
X103.12Y-126.57
X130.606Y-118.155
X130.606Y-120.695
T8
X104.805Y-58.035
X104.805Y-60.575
X104.805Y-63.115
X104.805Y-65.655
X104.805Y-68.195
X104.805Y-70.735
X104.805Y-73.275
X104.805Y-75.815
X104.805Y-78.355
X104.805Y-80.895
X104.905Y-83.535
X104.905Y-86.075
X104.905Y-88.615
X104.905Y-91.155
X104.905Y-93.695
X104.905Y-96.235
X104.905Y-98.675
X104.905Y-101.215
X130.105Y-63.015
X130.105Y-65.555
X130.105Y-68.095
X130.105Y-70.635
X130.105Y-73.175
X130.105Y-75.715
X130.205Y-58.035
X130.205Y-60.575
X130.205Y-78.355
X130.205Y-80.895
X130.205Y-83.435
X130.205Y-85.975
X130.205Y-88.515
X130.205Y-91.055
X130.205Y-93.595
X130.205Y-96.135
X130.205Y-98.675
X130.205Y-101.215
T9
X90.66Y-113.62
X90.66Y-120.12
X95.16Y-113.62
X95.16Y-120.12
T10
X60.89Y-101.88
X60.89Y-106.96
X60.89Y-112.04
X60.89Y-117.12
T11
X58.166Y-32.512
X62.992Y-126.589
X132.532Y-32.71
X133.096Y-129.189
T0
M30
